<svg xmlns="http://www.w3.org/2000/svg" fill="none" viewBox="0 0 241 70" height="70" width="241">
<path fill="#00B189" d="M12.6223 27.5956C12.7547 27.4135 12.8734 27.2281 12.9854 27.0393C13.7946 25.6848 14.1142 24.0965 13.8914 22.537C13.6686 20.9776 12.9168 19.5403 11.7602 18.4629C10.6036 17.3855 9.11145 16.7324 7.53054 16.6117C5.94963 16.4909 4.37456 16.9097 3.06576 17.7988C2.39255 18.2469 1.80432 18.8095 1.3282 19.4609C0.242284 20.9486 -0.2042 22.804 0.0869688 24.6188C0.378138 26.4336 1.38311 28.0592 2.8808 29.1379C4.37849 30.2167 6.24622 30.6602 8.07311 30.3709C9.9 30.0817 11.5364 29.0834 12.6223 27.5956Z"></path>
<path fill="#231F20" d="M160.403 13.6389H155.102L153.066 18.4294H151.45L157.742 4.07812L164.061 18.4294H162.446L160.403 13.6389ZM159.805 12.2533L157.742 7.50328L155.706 12.2533H159.805Z"></path>
<path fill="#231F20" d="M174.591 4.0376V18.4293H173.196V17.1449C172.804 17.6157 172.31 17.9933 171.752 18.2499C171.193 18.5066 170.584 18.6359 169.969 18.6282C168.784 18.5829 167.664 18.0836 166.842 17.2351C166.02 16.3865 165.561 15.2547 165.561 14.0771C165.561 12.8995 166.02 11.7677 166.842 10.9191C167.664 10.0706 168.784 9.57124 169.969 9.52594C170.585 9.51895 171.194 9.64883 171.752 9.90608C172.311 10.1633 172.804 10.5414 173.196 11.0126V4.31404L174.591 4.0376ZM173.295 14.0737C173.279 13.4473 173.077 12.8395 172.715 12.3264C172.353 11.8132 171.847 11.4175 171.26 11.1887C170.672 10.96 170.03 10.9083 169.414 11.0402C168.797 11.1721 168.233 11.4817 167.793 11.9303C167.352 12.3789 167.055 12.9466 166.938 13.5623C166.82 14.1779 166.889 14.8143 167.133 15.3917C167.378 15.9692 167.789 16.462 168.315 16.8086C168.84 17.1552 169.457 17.3402 170.088 17.3404C170.515 17.3383 170.938 17.2517 171.331 17.0858C171.725 16.9198 172.081 16.6778 172.38 16.3738C172.678 16.0699 172.913 15.71 173.07 15.3151C173.227 14.9202 173.303 14.4982 173.295 14.0737Z"></path>
<path fill="#231F20" d="M185.471 9.72852L181.087 18.8308L176.702 9.72852H178.256L181.087 15.8439L183.917 9.72852H185.471Z"></path>
<path fill="#231F20" d="M192.085 18.4295L192.017 17.8193C191.407 18.3377 190.628 18.6191 189.825 18.6115C189.404 18.6115 188.987 18.5291 188.598 18.369C188.209 18.2089 187.855 17.9743 187.557 17.6785C187.26 17.3826 187.023 17.0314 186.862 16.6449C186.701 16.2584 186.618 15.8441 186.618 15.4258C186.618 15.0074 186.701 14.5931 186.862 14.2066C187.023 13.8201 187.26 13.4689 187.557 13.1731C187.855 12.8772 188.209 12.6426 188.598 12.4825C188.987 12.3224 189.404 12.2399 189.825 12.2399C190.591 12.226 191.336 12.4937 191.916 12.9917V12.4692C191.916 11.3432 191.437 10.7836 190.025 10.7836C189.296 10.7922 188.574 10.9268 187.891 11.1814L188.152 9.89358C188.773 9.68174 189.426 9.57463 190.083 9.57669C192.214 9.57669 193.31 10.5881 193.31 12.3681V16.7506L193.372 18.4362L192.085 18.4295ZM192.048 15.4392C192.062 15.0276 191.952 14.621 191.733 14.2717C191.513 13.9223 191.193 13.6461 190.815 13.4782C190.436 13.3103 190.015 13.2585 189.607 13.3294C189.199 13.4003 188.821 13.5906 188.522 13.8761C188.223 14.1615 188.016 14.5291 187.929 14.9317C187.841 15.3344 187.877 15.7538 188.03 16.1363C188.184 16.5189 188.45 16.8471 188.792 17.0791C189.135 17.311 189.539 17.4361 189.954 17.4384C190.224 17.446 190.493 17.4001 190.746 17.3033C190.998 17.2066 191.228 17.0609 191.423 16.8748C191.618 16.6887 191.773 16.466 191.881 16.2195C191.988 15.973 192.045 15.7078 192.048 15.4392Z"></path>
<path fill="#231F20" d="M204.16 13.1838V18.4294H202.765V13.3018C202.765 11.6567 201.829 10.8071 200.495 10.8071C199.039 10.8071 197.984 11.8185 197.984 13.5041V18.4294H196.589V9.8362L197.906 9.57999V10.7667C198.246 10.3636 198.674 10.0421 199.157 9.82613C199.64 9.61015 200.166 9.50527 200.695 9.51931C202.687 9.51931 204.16 10.8476 204.16 13.1838Z"></path>
<path fill="#231F20" d="M206.713 14.0737C206.716 13.4712 206.84 12.8753 207.075 12.3201C207.311 11.765 207.655 11.2614 208.086 10.8384C208.518 10.4153 209.03 10.081 209.592 9.85468C210.154 9.62831 210.756 9.51431 211.362 9.51919C212.162 9.52387 212.951 9.7107 213.667 10.0653L213.398 11.4138C212.786 11.037 212.082 10.8319 211.362 10.8205C210.49 10.8205 209.654 11.1647 209.037 11.7773C208.42 12.3899 208.074 13.2208 208.074 14.0872C208.074 14.9536 208.42 15.7845 209.037 16.3971C209.654 17.0097 210.49 17.3539 211.362 17.3539C212.127 17.3391 212.872 17.1126 213.514 16.6999L213.755 18.0484C213.016 18.4144 212.204 18.6103 211.379 18.6215C210.772 18.6273 210.17 18.5142 209.607 18.2888C209.044 18.0634 208.531 17.73 208.098 17.3077C207.665 16.8854 207.319 16.3824 207.082 15.8275C206.844 15.2726 206.719 14.6767 206.713 14.0737Z"></path>
<path fill="#231F20" d="M216.178 6.35685C216.178 6.16068 216.236 5.96892 216.346 5.80586C216.456 5.6428 216.612 5.51576 216.794 5.44085C216.977 5.36593 217.178 5.3465 217.371 5.38502C217.565 5.42353 217.743 5.51826 217.882 5.65722C218.022 5.79617 218.116 5.97309 218.154 6.16557C218.193 6.35805 218.172 6.55744 218.096 6.73849C218.02 6.91953 217.892 7.0741 217.727 7.1826C217.563 7.2911 217.37 7.34866 217.172 7.34799C217.041 7.34889 216.911 7.32385 216.79 7.27432C216.668 7.22479 216.558 7.15176 216.466 7.0595C216.373 6.96724 216.3 6.85759 216.251 6.73695C216.201 6.61631 216.176 6.4871 216.178 6.35685ZM216.476 9.85955L217.871 9.58311V18.4292H216.476V9.85955Z"></path>
<path fill="#231F20" d="M228.951 13.1838V18.4294H227.552V13.3018C227.552 11.6567 226.619 10.8071 225.282 10.8071C223.83 10.8071 222.771 11.8185 222.771 13.5041V18.4294H221.376V9.8362L222.693 9.57999V10.7667C223.033 10.3636 223.461 10.0421 223.944 9.82613C224.427 9.61015 224.953 9.50527 225.482 9.51931C227.474 9.51931 228.951 10.8476 228.951 13.1838Z"></path>
<path fill="#231F20" d="M239.889 10.6893L238.335 10.5511C238.766 10.8816 239.113 11.3077 239.349 11.7953C239.584 12.2829 239.702 12.8185 239.692 13.3593C239.689 14.0374 239.497 14.7013 239.138 15.2778C238.778 15.8543 238.266 16.3209 237.656 16.626C238.184 16.9346 238.621 17.3746 238.925 17.9026C239.23 18.4305 239.39 19.0282 239.39 19.6365C239.39 21.575 237.836 23.1797 235.603 23.1797C234.706 23.2146 233.828 22.9216 233.134 22.3562C232.441 21.7908 231.98 20.9922 231.839 20.1119L233.132 19.5758C233.292 20.9816 234.228 21.9121 235.603 21.9121C235.92 21.9283 236.237 21.8796 236.534 21.769C236.831 21.6584 237.102 21.4883 237.33 21.2692C237.559 21.05 237.739 20.7867 237.86 20.4954C237.982 20.2041 238.042 19.8911 238.036 19.5758C238.037 19.2601 237.974 18.9473 237.85 18.6566C237.726 18.3659 237.543 18.1034 237.314 17.8849C237.084 17.6663 236.812 17.4965 236.515 17.3855C236.217 17.2746 235.9 17.225 235.582 17.2396C235.156 17.2469 234.738 17.3549 234.362 17.5549C233.986 17.7548 233.663 18.0408 233.421 18.3892L232.681 17.3778C232.942 17.0948 233.245 16.8537 233.58 16.6631C232.965 16.3545 232.449 15.882 232.09 15.2985C231.73 14.715 231.541 14.0435 231.544 13.3593C231.544 11.259 233.217 9.61726 235.708 9.5195L240.15 9.34082L239.889 10.6893ZM238.355 13.3863C238.355 12.667 238.067 11.9771 237.555 11.4685C237.043 10.9599 236.349 10.6741 235.625 10.6741C234.901 10.6741 234.206 10.9599 233.694 11.4685C233.182 11.9771 232.895 12.667 232.895 13.3863C232.92 14.089 233.218 14.7547 233.727 15.2431C234.237 15.7315 234.917 16.0045 235.625 16.0045C236.333 16.0045 237.013 15.7315 237.522 15.2431C238.032 14.7547 238.33 14.089 238.355 13.3863Z"></path>
<path fill="#231F20" d="M160.952 28.7352C160.952 31.4322 158.739 33.4043 155.692 33.4043H154.216V37.8982H152.702V24.0425H155.706C158.739 24.0425 160.952 26.0214 160.952 28.7352ZM159.357 28.7352C159.357 26.8338 157.823 25.4685 155.692 25.4685H154.216V31.9783H155.706C157.823 31.9783 159.357 30.6298 159.357 28.7352Z"></path>
<path fill="#231F20" d="M171.272 32.6525V37.8981H169.878V32.7739C169.878 31.1489 168.941 30.2994 167.607 30.2994C166.151 30.2994 165.096 31.3108 165.096 32.9694V37.8981H163.701V23.7862L165.096 23.5098V30.2522C165.419 29.8462 165.832 29.5203 166.303 29.3003C166.774 29.0803 167.29 28.9722 167.811 28.9846C169.779 28.9914 171.272 30.3163 171.272 32.6525Z"></path>
<path fill="#231F20" d="M181.953 29.1904L175.359 42.4528H173.804L176.747 36.6981L173.014 29.1972H174.568L177.476 35.2654L180.385 29.1972L181.953 29.1904Z"></path>
<path fill="#231F20" d="M183.31 37.1869L183.547 35.9193C184.426 36.5329 185.22 36.87 186.099 36.87C186.978 36.87 187.592 36.3542 187.592 35.5215C187.592 34.9282 187.294 34.4899 185.977 34.0752L185.621 33.9572C184.263 33.5021 183.527 32.6088 183.527 31.4052C183.527 30.0365 184.623 29.0083 186.177 29.0083C187.019 29.0331 187.841 29.2648 188.57 29.6825L188.308 30.9468C187.673 30.5275 186.938 30.2822 186.177 30.2354C185.322 30.2354 184.843 30.731 184.843 31.385C184.843 31.9379 185.142 32.3323 186.296 32.7335L186.656 32.8515C188.132 33.3268 188.946 34.2371 188.946 35.5249C188.946 37.0487 187.793 38.1173 186.099 38.1173C185.097 38.0908 184.125 37.7667 183.31 37.1869Z"></path>
<path fill="#231F20" d="M191.577 25.8261C191.577 25.6299 191.634 25.4379 191.744 25.2745C191.853 25.1111 192.008 24.9835 192.191 24.908C192.373 24.8324 192.574 24.8123 192.767 24.8502C192.961 24.888 193.139 24.9822 193.279 25.1206C193.419 25.2591 193.514 25.4357 193.553 25.6281C193.592 25.8204 193.572 26.0199 193.497 26.2012C193.422 26.3825 193.294 26.5375 193.13 26.6465C192.965 26.7556 192.772 26.8138 192.575 26.8138C192.444 26.8152 192.314 26.7906 192.192 26.7414C192.071 26.6923 191.96 26.6197 191.868 26.5277C191.775 26.4358 191.701 26.3264 191.651 26.2059C191.601 26.0854 191.576 25.9563 191.577 25.8261ZM191.876 29.3287L193.271 29.0523V37.8984H191.876V29.3287Z"></path>
<path fill="#231F20" d="M196.043 33.5458C196.046 32.9438 196.169 32.3482 196.404 31.7933C196.639 31.2384 196.982 30.735 197.413 30.3119C197.844 29.8889 198.355 29.5545 198.917 29.3279C199.478 29.1013 200.079 28.9869 200.685 28.9913C201.488 28.9985 202.279 29.1876 202.997 29.5442L202.735 30.8725C202.124 30.4933 201.42 30.288 200.699 30.2791C199.846 30.3064 199.036 30.6623 198.442 31.2717C197.848 31.881 197.516 32.6959 197.516 33.5442C197.516 34.3924 197.848 35.2073 198.442 35.8167C199.036 36.426 199.846 36.7819 200.699 36.8092C201.463 36.7951 202.208 36.5698 202.851 36.1585L203.088 37.507C202.349 37.8721 201.538 38.0679 200.713 38.0801C199.488 38.0927 198.309 37.6224 197.434 36.7723C196.558 35.9222 196.058 34.7619 196.043 33.5458Z"></path>
<path fill="#231F20" d="M205.087 37.1869L205.328 35.9193C206.203 36.5329 207.001 36.87 207.876 36.87C208.752 36.87 209.373 36.3542 209.373 35.5215C209.373 34.9282 209.074 34.4899 207.758 34.0752L207.398 33.9572C206.024 33.5021 205.307 32.6088 205.307 31.4052C205.307 30.0365 206.404 29.0083 207.958 29.0083C208.794 29.0359 209.609 29.2674 210.334 29.6825L210.076 30.9468C209.44 30.5284 208.705 30.2831 207.944 30.2354C207.086 30.2354 206.607 30.731 206.607 31.385C206.607 31.9379 206.906 32.3323 208.063 32.7335L208.423 32.8515C209.896 33.3268 210.714 34.2371 210.714 35.5249C210.714 37.0487 209.556 38.1173 207.863 38.1173C206.865 38.0875 205.899 37.7636 205.087 37.1869Z"></path>
<path fill="#00538B" d="M131.451 21.1669C127.562 18.4699 124.291 17.7215 120.432 16.3022C117.096 15.0751 117.218 13.0827 118.297 12.0376C120.171 10.2171 123.727 10.942 125.203 11.6803C126.261 12.2197 127.198 12.9649 127.959 13.8715C128.07 14.0249 128.215 14.1508 128.383 14.2395C128.55 14.3283 128.737 14.3775 128.926 14.3834C129.116 14.3892 129.305 14.3516 129.478 14.2734C129.651 14.1951 129.804 14.0784 129.924 13.9322C130.352 13.44 135.418 7.91797 135.982 7.30441C136.107 7.17899 136.205 7.02951 136.271 6.8651C136.336 6.7007 136.367 6.52481 136.361 6.34815C136.356 6.1715 136.314 5.99779 136.239 5.83762C136.164 5.67745 136.057 5.53417 135.924 5.41653C135.398 4.89736 133.324 2.92857 129.371 1.40478C126.13 0.112249 122.6 -0.298536 119.146 0.214745C116.214 0.626034 110.353 1.75539 107.024 7.72919C103.694 13.703 106.168 20.7994 109.039 23.2368C112.433 26.1192 114.938 26.7664 118.711 27.9565C122.485 29.1465 124.793 30.8422 123.479 33.4077C122.271 35.7676 118.022 35.272 115.532 33.8966C114.218 33.2176 113.054 32.2872 112.104 31.1591C111.991 31.0102 111.846 30.8882 111.679 30.8023C111.512 30.7163 111.328 30.6685 111.14 30.6623C110.952 30.6562 110.766 30.6919 110.594 30.7668C110.422 30.8416 110.269 30.9538 110.146 31.0951C109.572 31.7053 104.441 37.1093 103.898 37.6656C103.775 37.7885 103.677 37.9349 103.612 38.096C103.547 38.2571 103.515 38.4296 103.518 38.6032C103.521 38.7768 103.559 38.948 103.63 39.1067C103.702 39.2653 103.804 39.4081 103.932 39.5265C104.804 40.3929 106.616 42.5168 110.94 44.2462C114.452 45.6453 118.338 46.0835 122.668 45.6419C127.854 45.1092 133.046 41.4515 134.696 37.551C137.774 30.2624 135.344 23.8638 131.451 21.1669Z"></path>
<path fill="#00538B" d="M84.8083 0.504431H69.9271C69.4746 0.504431 69.2484 0.747158 69.2484 1.23261V44.4213C69.2339 44.5131 69.2414 44.607 69.2704 44.6954C69.2994 44.7838 69.349 44.8641 69.4152 44.9298C69.4813 44.9956 69.5622 45.0448 69.6511 45.0736C69.7401 45.1024 69.8347 45.1099 69.9271 45.0955H80.1081C80.2005 45.1099 80.2951 45.1024 80.3841 45.0736C80.473 45.0448 80.5539 44.9956 80.6201 44.9298C80.6862 44.8641 80.7358 44.7838 80.7648 44.6954C80.7938 44.607 80.8013 44.5131 80.7868 44.4213V29.2137H84.5843C87.0583 29.2137 101.302 29.0957 101.302 14.7377C101.302 0.379696 87.5131 0.504431 84.8083 0.504431ZM83.8309 19.4203H80.7767V10.4799H83.9599C86.1149 10.4799 90.1432 10.4799 90.1432 14.8018C90.1432 19.1237 85.8162 19.4203 83.8309 19.4203Z"></path>
<path fill="#00538B" d="M32.9806 7.30105L33.7714 5.27832C11.1356 -1.15733 -2.48314 4.10851 3.0655 17.799C3.74697 17.3325 4.50653 16.99 5.30871 16.7877C-0.351917 4.9412 11.7669 -0.162826 32.9806 7.30105Z"></path>
<path fill="#00538B" d="M82.7759 38.923V41.4481C85.6911 44.2093 88.369 47.2078 90.7815 50.4121C102.351 65.9197 96.001 71.3979 72.1673 63.5599C59.38 59.356 45.1978 51.9561 33.0078 43.6056L35.4241 36.6239H50.061L53.061 44.5934C53.0835 44.736 53.1592 44.8651 53.2729 44.9549C53.3867 45.0448 53.5302 45.0891 53.6752 45.0789H64.5146C64.6141 45.0929 64.7156 45.0838 64.811 45.0522C64.9064 45.0206 64.9931 44.9673 65.0642 44.8967C65.1353 44.826 65.1889 44.7399 65.2207 44.6452C65.2526 44.5504 65.2618 44.4496 65.2476 44.3507C65.2329 44.2216 65.1925 44.0967 65.1288 43.9832L48.4083 0.963126C48.3735 0.825573 48.2936 0.703466 48.1811 0.616145C48.0686 0.528824 47.93 0.48128 47.7872 0.481042H38.285C38.1339 0.474853 37.9852 0.518915 37.8622 0.606244C37.7393 0.693572 37.6492 0.819169 37.6062 0.963126L23.6209 36.6576C19.8671 33.6832 16.3142 30.4668 12.9852 27.0294C12.8732 27.2182 12.7544 27.4036 12.6221 27.5856C12.1051 28.2923 11.458 28.8952 10.7148 29.3623C14.2257 33.3358 18.0537 37.0213 22.1617 40.3828C24.0757 41.9695 26.0746 43.5326 28.1583 45.0721C41.1899 54.6902 57.096 63.007 71.5971 67.1232C96.8019 74.2837 103.688 67.8312 92.5089 50.5032C90.0553 46.7105 86.7397 42.7966 82.7759 38.923ZM42.8359 14.957L46.8777 26.7563H38.7329L42.8359 14.957Z"></path>
</svg>
